<?xml version="1.0" standalone="no"?>
<!DOCTYPE svg PUBLIC "-//W3C//DTD SVG 20010904//EN"
 "http://www.w3.org/TR/2001/REC-SVG-20010904/DTD/svg10.dtd">
<svg version="1.0" xmlns="http://www.w3.org/2000/svg"
 width="44.000000pt" height="44.000000pt" viewBox="0 0 44.000000 44.000000"
 preserveAspectRatio="xMidYMid meet">
<metadata>
Created by potrace 1.16, written by Peter Selinger 2001-2019
</metadata>
<g transform="translate(0.000000,44.000000) scale(0.100000,-0.100000)"
fill="#4b4f56" stroke="none">
<path d="M190 340 c0 -57 -4 -80 -12 -81 -7 -1 -43 0 -80 1 l-68 2 0 -36 0
-35 78 -3 77 -3 3 -77 3 -78 29 0 29 0 3 78 3 77 78 3 77 3 0 35 0 36 -67 -2
c-38 -1 -74 -2 -80 -1 -9 1 -13 24 -13 81 l0 80 -30 0 -30 0 0 -80z"/>
</g>
</svg>
